# xmcd
# Track frame offsets:
# 150
# 16136
# 33824
# 50752
# 68031
# 86468
# 103465
# 123567
# 142936
# 155368
#
# Disc length: 2332 seconds
# Revision: 0
# Processed by: cddbd v1.5.2PL0 Copyright (c) Steve Scherf et al.
# Submitted via: VisiTrax 2.11.2.271 - For more info visit www.synapsa.com
#
DISCID=7e091a0a
DTITLE=Terri Clark - Roots And Wings
DYEAR=2011
DGENRE=
TTITLE0=Wrecking Ball
TTITLE1=Breakin´ Up Things
TTITLE2=The One
TTITLE3=Northen Girl
TTITLE4=Beautiful And Broken
TTITLE5=Lonesome´s Last Call
TTITLE6=The Good Was Great
TTITLE7=Smile (with Alison Krauss)
TTITLE8=We´re Here For A Good Time
TTITLE9=Flowers In The Snow
EXTD=
EXTT0=
EXTT1=
EXTT2=
EXTT3=
EXTT4=
EXTT5=
EXTT6=
EXTT7=
EXTT8=
EXTT9=
PLAYORDER=
